<svg xmlns="http://www.w3.org/2000/svg" viewBox="0 0 16 16" shape-rendering="crispEdges"><rect width="16" height="16" fill="#000"/><rect x="3" y="2" width="9" height="1" fill="#ffffff"/><rect x="3" y="3" width="2" height="1" fill="#959595"/><rect x="11" y="3" width="2" height="1" fill="#959595"/><rect x="3" y="4" width="2" height="1" fill="#b8c76f"/><rect x="11" y="4" width="2" height="1" fill="#b8c76f"/><rect x="3" y="5" width="2" height="1" fill="#b8c76f"/><rect x="11" y="5" width="2" height="1" fill="#b8c76f"/><rect x="3" y="6" width="2" height="1" fill="#9a6759"/><rect x="11" y="6" width="2" height="1" fill="#9a6759"/><rect x="3" y="7" width="9" height="1" fill="#9a6759"/><rect x="3" y="8" width="2" height="1" fill="#6f4f25"/><rect x="3" y="9" width="2" height="1" fill="#6f4f25"/><rect x="3" y="10" width="2" height="1" fill="#68372b"/><rect x="3" y="11" width="2" height="1" fill="#68372b"/><rect x="3" y="12" width="2" height="1" fill="#433900"/></svg>
